####
#
# OBJ File Generated by Meshlab
#
####
# Object cat6.obj
#
# Vertices: 69
# Faces: 134
#
####
vn 0.968773 0.236341 -0.074986
v 0.406470 1.063169 -0.252077 0.752941 0.752941 0.752941
vn -0.838358 0.139868 0.526871
v -0.295038 1.091577 0.192155 0.752941 0.752941 0.752941
vn 0.955727 -0.247555 -0.159066
v 0.557255 1.601035 0.404766 0.752941 0.752941 0.752941
vn -0.982342 0.170932 0.076065
v -0.386261 1.329211 -0.263096 0.752941 0.752941 0.752941
vn -0.980827 0.194856 -0.002958
v -0.430432 2.073753 0.612524 0.752941 0.752941 0.752941
vn -0.979831 -0.167130 0.109543
v -0.360481 1.222329 0.669117 0.752941 0.752941 0.752941
vn 0.889771 0.444488 -0.103630
v 0.589166 2.212025 0.704629 0.752941 0.752941 0.752941
vn -0.677451 -0.040387 0.734459
v -0.278159 1.966054 1.011287 0.752941 0.752941 0.752941
vn 0.952128 -0.050985 0.301417
v 0.663563 1.753344 0.799119 0.752941 0.752941 0.752941
vn -0.969036 0.242508 0.046463
v -0.471036 1.035837 -0.506503 0.752941 0.752941 0.752941
vn 0.912446 -0.290416 -0.288272
v 0.446878 0.317412 -0.540255 0.752941 0.752941 0.752941
vn -0.871158 0.223807 -0.437029
v -0.420943 1.038203 -0.819338 0.752941 0.752941 0.752941
vn -0.988025 -0.034053 -0.150488
v -0.530238 0.581078 -0.650837 0.752941 0.752941 0.752941
vn 0.901847 0.128929 -0.412370
v 0.467083 0.754419 -0.600916 0.752941 0.752941 0.752941
vn -0.317311 -0.935035 0.158190
v -0.300854 0.096626 -0.530201 0.752941 0.752941 0.752941
vn 0.627790 -0.614360 -0.477956
v 0.258729 0.147444 -0.853160 0.752941 0.752941 0.752941
vn 0.452385 0.283248 -0.845647
v 0.019749 0.311886 -1.021824 0.752941 0.752941 0.752941
vn 0.804555 0.463444 0.371363
v 0.128897 1.152716 -1.736760 0.752941 0.752941 0.752941
vn 0.943987 0.280536 -0.173746
v 0.418197 3.094074 1.216974 0.752941 0.752941 0.752941
vn 0.067333 0.780842 -0.621089
v -0.000973 2.157820 -0.196336 0.752941 0.752941 0.752941
vn 0.702553 0.427343 -0.569033
v 0.163913 1.671056 -0.521562 0.752941 0.752941 0.752941
vn 0.264625 0.864849 -0.426626
v 0.197430 2.529348 0.418260 0.752941 0.752941 0.752941
vn 0.850706 0.341682 -0.399440
v 0.488540 2.178245 0.329155 0.752941 0.752941 0.752941
vn -0.781021 0.530988 -0.328721
v -0.300720 2.069143 0.153546 0.752941 0.752941 0.752941
vn 0.578000 -0.400332 0.711090
v 0.469706 1.278326 0.817940 0.752941 0.752941 0.752941
vn -0.261808 -0.484579 0.834650
v -0.171095 1.365313 0.906605 0.752941 0.752941 0.752941
vn -0.458585 0.575854 -0.676825
v -0.041086 2.647595 0.682966 0.752941 0.752941 0.752941
vn 0.045443 -0.133041 0.990068
v 0.097380 1.968414 1.128629 0.752941 0.752941 0.752941
vn 0.933651 0.055272 0.353893
v 0.315069 2.650718 1.105725 0.752941 0.752941 0.752941
vn -0.184203 0.560656 -0.807300
v -0.156716 1.688222 -0.662441 0.752941 0.752941 0.752941
vn 0.534666 0.239300 -0.810474
v 0.202485 1.057913 -0.822853 0.752941 0.752941 0.752941
vn -0.184933 0.159200 -0.969771
v -0.184986 0.817978 -1.023590 0.752941 0.752941 0.752941
vn -0.707456 -0.614451 0.349222
v -0.495877 0.424093 -0.303270 0.752941 0.752941 0.752941
vn 0.304307 -0.797741 0.520584
v 0.319707 0.187343 -0.234369 0.752941 0.752941 0.752941
vn -0.801540 -0.436491 -0.408668
v -0.408188 0.210929 -0.819644 0.752941 0.752941 0.752941
vn 0.338424 -0.800525 -0.494599
v -0.036811 0.023345 -1.155559 0.752941 0.752941 0.752941
vn -0.895967 0.308893 -0.319105
v 0.168588 1.730281 -1.480136 0.752941 0.752941 0.752941
vn -0.916971 -0.000692 -0.398953
v -0.151245 0.293039 -1.442783 0.752941 0.752941 0.752941
vn -0.615203 -0.270090 -0.740659
v -0.068184 0.509547 -1.776086 0.752941 0.752941 0.752941
vn -0.729427 -0.678407 0.087755
v -0.159304 1.121253 0.443698 0.752941 0.752941 0.752941
vn 0.917177 -0.392673 -0.067780
v -0.091794 0.505394 0.800558 0.752941 0.752941 0.752941
vn -0.263661 -0.854938 0.446725
v 0.234871 1.147297 0.569139 0.752941 0.752941 0.752941
vn 0.637452 -0.349119 -0.686855
v 0.439694 0.618683 0.657009 0.752941 0.752941 0.752941
vn -0.907168 -0.420753 -0.003533
v -0.244404 0.552144 0.635342 0.752941 0.752941 0.752941
vn 0.007835 -0.475933 0.879447
v 0.064248 0.849045 0.333144 0.752941 0.752941 0.752941
vn 0.947560 0.271787 0.168115
v 0.528707 0.804994 0.154656 0.752941 0.752941 0.752941
vn -0.751457 0.310761 0.582014
v -0.426496 0.783669 0.270258 0.752941 0.752941 0.752941
vn 0.202828 -0.401292 0.893211
v 0.200857 0.872909 0.376068 0.752941 0.752941 0.752941
vn 0.556910 -0.433214 0.708644
v 0.474075 0.489614 0.358256 0.752941 0.752941 0.752941
vn -0.257135 -0.486617 0.834917
v -0.359195 0.492120 0.417531 0.752941 0.752941 0.752941
vn -0.522811 -0.800525 0.292965
v -0.373400 0.216028 0.003693 0.752941 0.752941 0.752941
vn -0.981863 -0.063443 0.178661
v -0.519179 0.609578 -0.101725 0.752941 0.752941 0.752941
vn 0.856161 -0.516528 0.013660
v 0.510345 0.259075 -0.215765 0.752941 0.752941 0.752941
vn 0.623989 -0.664859 0.410610
v -0.192026 0.420044 -0.109300 0.752941 0.752941 0.752941
vn -0.722175 -0.386961 0.573345
v 0.282497 0.476478 -0.152108 0.752941 0.752941 0.752941
vn -0.570451 0.624344 -0.533647
v -0.469122 0.477124 -0.475304 0.752941 0.752941 0.752941
vn -0.927956 -0.022756 -0.371994
v 0.336037 -0.015076 -0.654158 0.752941 0.752941 0.752941
vn 0.000000 0.000000 0.000000
v -0.090119 0.072701 0.897273 0.752941 0.752941 0.752941
vn -0.677914 -0.730332 0.083947
v 0.331004 0.109636 0.915349 0.752941 0.752941 0.752941
vn 0.000000 0.000000 0.000000
v 0.301456 0.131422 0.298013 0.752941 0.752941 0.752941
vn -0.302743 -0.923083 0.237202
v 0.307436 0.157713 -0.178424 0.752941 0.752941 0.752941
vn 0.735176 -0.521389 -0.433208
v -0.417917 0.056928 -0.768217 0.752941 0.752941 0.752941
vn -0.939342 0.171319 0.297131
v -0.462683 2.970532 1.233570 0.752941 0.752941 0.752941
vn -0.741941 -0.236377 0.627415
v -0.074280 2.493756 1.058248 0.752941 0.752941 0.752941
vn -0.160254 -0.602217 0.782083
v -0.186075 2.756244 1.578353 0.752941 0.752941 0.752941
vn 0.343194 0.242197 0.907501
v 0.193245 3.038176 1.573116 0.752941 0.752941 0.752941
vn -0.244264 0.696875 -0.674314
v -0.253775 3.324784 0.923914 0.752941 0.752941 0.752941
vn 0.540841 0.367248 -0.756717
v 0.102271 3.222907 1.018428 0.752941 0.752941 0.752941
vn 0.236037 0.965547 0.109572
v 0.163172 3.412534 1.218070 0.752941 0.752941 0.752941
# 69 vertices, 0 vertices normals

f 4//4 24//24 12//12
f 48//48 1//1 3//3
f 40//40 4//4 2//2
f 4//4 40//40 5//5
f 23//23 3//3 1//1
f 5//5 24//24 4//4
f 23//23 7//7 9//9
f 40//40 6//6 5//5
f 8//8 5//5 6//6
f 7//7 29//29 9//9
f 64//64 5//5 8//8
f 1//1 14//14 21//21
f 55//55 34//34 11//11
f 34//34 14//14 11//11
f 14//14 34//34 16//16
f 33//33 13//13 35//35
f 33//33 35//35 15//15
f 36//36 18//18 38//38
f 40//40 2//2 45//45
f 24//24 30//30 12//12
f 23//23 20//20 22//22
f 21//21 20//20 23//23
f 24//24 20//20 30//30
f 22//22 24//24 27//27
f 23//23 22//22 7//7
f 29//29 22//22 27//27
f 29//29 7//7 22//22
f 26//26 28//28 8//8
f 28//28 25//25 9//9
f 25//25 28//28 26//26
f 29//29 28//28 9//9
f 68//68 29//29 27//27
f 19//19 29//29 68//68
f 31//31 21//21 14//14
f 31//31 14//14 16//16
f 17//17 31//31 16//16
f 30//30 31//31 32//32
f 31//31 17//17 32//32
f 55//55 45//45 34//34
f 54//54 34//34 45//45
f 15//15 34//34 33//33
f 32//32 17//17 35//35
f 17//17 38//38 35//35
f 36//36 39//39 18//18
f 38//38 39//39 36//36
f 36//36 38//38 17//17
f 25//25 43//43 3//3
f 44//44 26//26 6//6
f 43//43 42//42 3//3
f 6//6 40//40 44//44
f 56//56 52//52 54//54
f 47//47 10//10 52//52
f 47//47 2//2 10//10
f 2//2 47//47 45//45
f 47//47 50//50 45//45
f 49//49 46//46 48//48
f 46//46 49//49 53//53
f 51//51 54//54 50//50
f 56//56 54//54 62//62
f 48//48 45//45 55//55
f 55//55 57//57 61//61
f 62//62 54//54 51//51
f 48//48 61//61 49//49
f 56//56 62//62 51//51
f 44//44 58//58 41//41
f 58//58 44//44 41//41
f 42//42 59//59 25//25
f 61//61 57//57 11//11
f 57//57 60//60 61//61
f 27//27 64//64 63//63
f 66//66 65//65 29//29
f 66//66 19//19 69//69
f 66//66 29//29 19//19
f 65//65 66//66 63//63
f 67//67 69//69 68//68
f 69//69 63//63 66//66
f 21//21 23//23 1//1
f 9//9 3//3 23//23
f 42//42 48//48 3//3
f 26//26 8//8 6//6
f 64//64 27//27 5//5
f 28//28 64//64 8//8
f 10//10 2//2 4//4
f 46//46 14//14 1//1
f 10//10 4//4 12//12
f 52//52 10//10 13//13
f 33//33 52//52 13//13
f 12//12 13//13 10//10
f 35//35 13//13 12//12
f 35//35 38//38 36//36
f 36//36 17//17 16//16
f 38//38 37//37 39//39
f 21//21 30//30 20//20
f 42//42 45//45 48//48
f 45//45 42//42 40//40
f 20//20 24//24 22//22
f 42//42 26//26 40//40
f 25//25 26//26 42//42
f 5//5 27//27 24//24
f 68//68 27//27 67//67
f 28//28 29//29 64//64
f 12//12 30//30 32//32
f 30//30 21//21 31//31
f 32//32 35//35 12//12
f 33//33 34//34 54//54
f 16//16 34//34 15//15
f 35//35 16//16 15//15
f 36//36 16//16 35//35
f 18//18 37//37 38//38
f 37//37 18//18 39//39
f 40//40 26//26 41//41
f 44//44 41//41 26//26
f 9//9 25//25 3//3
f 41//41 44//44 40//40
f 14//14 46//46 11//11
f 46//46 1//1 48//48
f 54//54 52//52 33//33
f 47//47 52//52 50//50
f 50//50 52//52 51//51
f 46//46 53//53 11//11
f 50//50 54//54 45//45
f 55//55 61//61 48//48
f 57//57 55//55 11//11
f 52//52 56//56 51//51
f 61//61 53//53 49//49
f 53//53 61//61 11//11
f 43//43 59//59 42//42
f 59//59 43//43 25//25
f 61//61 60//60 57//57
f 67//67 27//27 63//63
f 64//64 29//29 65//65
f 65//65 63//63 64//64
f 63//63 69//69 67//67
f 19//19 68//68 69//69
# 134 faces, 0 coords texture

# End of File
