####
#
# OBJ File Generated by Meshlab
#
####
# Object dog3.obj
#
# Vertices: 83
# Faces: 162
#
####
mtllib ./dog3.obj.mtl

vn 0.517294 -0.747262 0.417141
v 0.091733 1.576357 1.100620 0.752941 0.752941 0.752941
vn 0.791711 -0.533687 -0.297273
v 0.167926 1.071751 0.212227 0.752941 0.752941 0.752941
vn 0.153041 -0.475301 0.866410
v 0.217345 0.864601 0.778179 0.752941 0.752941 0.752941
vn 0.209277 0.197183 -0.957769
v 0.228302 1.206845 -0.552802 0.752941 0.752941 0.752941
vn 0.851470 -0.177904 0.493304
v 0.322881 0.809309 0.701956 0.752941 0.752941 0.752941
vn -0.369391 -0.878737 -0.302276
v 0.118831 0.821068 0.604724 0.752941 0.752941 0.752941
vn 0.963343 -0.181157 -0.197868
v 0.265646 0.402323 0.599140 0.752941 0.752941 0.752941
vn -0.966845 -0.250217 0.051009
v 0.182623 0.476594 -0.687572 0.752941 0.752941 0.752941
vn 0.000000 0.000000 0.000000
v 0.252733 0.111704 -0.711325 0.752941 0.752941 0.752941
vn 0.972844 -0.013148 0.231087
v 0.199665 1.322086 -0.054205 0.752941 0.752941 0.752941
vn 0.961071 0.208878 -0.180863
v 0.199712 1.816673 1.030547 0.752941 0.752941 0.752941
vn 0.161097 0.072983 -0.984236
v 0.262245 0.500282 -0.726128 0.752941 0.752941 0.752941
vn 0.472430 -0.643213 -0.602567
v -0.033128 1.042917 -0.434463 0.752941 0.752941 0.752941
vn 0.238871 -0.272153 0.932134
v 0.116569 1.146602 0.930245 0.752941 0.752941 0.752941
vn 0.917993 0.387807 0.083036
v 0.187952 1.516283 0.779653 0.752941 0.752941 0.752941
vn 0.139793 -0.924226 0.355338
v 0.135764 1.106613 -0.138082 0.752941 0.752941 0.752941
vn 0.978645 -0.006176 -0.205467
v 0.322728 1.059026 0.552347 0.752941 0.752941 0.752941
vn 0.472060 0.878080 0.078319
v 0.111641 1.468135 0.112154 0.752941 0.752941 0.752941
vn 0.369666 0.888191 -0.272880
v 0.106968 1.479166 0.536000 0.752941 0.752941 0.752941
vn 0.966562 0.069203 -0.246920
v 0.255818 1.239981 0.364518 0.752941 0.752941 0.752941
vn -0.857901 -0.207107 -0.470226
v 0.103662 0.970991 -0.425334 0.752941 0.752941 0.752941
vn 0.610804 -0.413684 0.675118
v 0.284825 0.893821 -0.318929 0.752941 0.752941 0.752941
vn 0.968429 0.145335 -0.202540
v 0.341956 1.107733 -0.433373 0.752941 0.752941 0.752941
vn 0.491978 0.807425 -0.325611
v 0.121684 1.954115 1.049546 0.752941 0.752941 0.752941
vn -0.607260 -0.789905 0.085351
v 0.018676 1.611229 1.170269 0.752941 0.752941 0.752941
vn 0.505199 -0.511542 -0.695053
v 0.232235 0.906626 0.469849 0.752941 0.752941 0.752941
vn 0.223504 -0.830757 -0.509793
v 0.190666 0.304764 -0.655769 0.752941 0.752941 0.752941
vn -0.933338 -0.165546 0.318550
v 0.182615 0.090147 0.694957 0.752941 0.752941 0.752941
vn 0.859253 -0.431253 -0.275145
v 0.311904 0.089329 0.708631 0.752941 0.752941 0.752941
vn -0.977591 -0.206683 0.039982
v -0.163286 1.647605 0.992126 0.752941 0.752941 0.752941
vn -0.733119 0.673289 0.096009
v -0.121737 1.447327 0.061152 0.752941 0.752941 0.752941
vn -0.712791 0.323272 0.622433
v -0.127822 1.839399 1.249050 0.752941 0.752941 0.752941
vn 0.124005 0.719235 -0.683610
v 0.013239 1.498521 -0.446770 0.752941 0.752941 0.752941
vn 0.221066 0.421406 0.879515
v -0.191246 0.239672 0.740345 0.752941 0.752941 0.752941
vn 0.046610 -0.658836 -0.750841
v -0.178901 0.880165 0.489205 0.752941 0.752941 0.752941
vn 0.702810 -0.536731 0.466881
v -0.180809 0.445068 0.623025 0.752941 0.752941 0.752941
vn 0.938685 -0.316384 0.137011
v -0.122890 0.769802 -0.484417 0.752941 0.752941 0.752941
vn -0.211305 -0.475912 0.853732
v -0.207941 0.477114 -0.630559 0.752941 0.752941 0.752941
vn 0.845879 0.040620 -0.531825
v -0.171467 0.357833 -0.735486 0.752941 0.752941 0.752941
vn -0.856295 0.107397 -0.505198
v -0.242326 0.470239 -0.727021 0.752941 0.752941 0.752941
vn -0.318183 -0.804005 0.502330
v 0.000362 1.584064 1.438163 0.752941 0.752941 0.752941
vn -0.697676 -0.105985 0.708530
v -0.247224 1.082494 0.848904 0.752941 0.752941 0.752941
vn -0.532704 -0.232973 0.813603
v -0.050790 1.405592 1.003634 0.752941 0.752941 0.752941
vn 0.161711 0.212710 -0.963641
v -0.227386 0.781803 -0.594250 0.752941 0.752941 0.752941
vn -0.986772 0.149279 -0.063226
v -0.298420 1.173125 0.607414 0.752941 0.752941 0.752941
vn -0.956647 0.056402 0.285736
v -0.257498 1.279378 -0.218166 0.752941 0.752941 0.752941
vn -0.071237 0.724793 -0.685274
v 0.000977 1.644483 0.786116 0.752941 0.752941 0.752941
vn -0.926965 0.366340 0.080818
v -0.179364 1.491934 0.789661 0.752941 0.752941 0.752941
vn -0.992777 -0.101428 0.064084
v -0.308312 0.957403 -0.406088 0.752941 0.752941 0.752941
vn -0.648080 0.360472 -0.670859
v -0.279152 1.150070 -0.560722 0.752941 0.752941 0.752941
vn 0.013557 -0.576009 0.817331
v -0.217580 0.835422 -0.307982 0.752941 0.752941 0.752941
vn -0.771551 -0.596818 -0.220268
v -0.127903 1.129726 0.106308 0.752941 0.752941 0.752941
vn -0.192825 -0.953842 0.230226
v -0.080931 1.081195 -0.161429 0.752941 0.752941 0.752941
vn -0.898526 -0.356610 0.255892
v -0.296535 0.782588 0.671220 0.752941 0.752941 0.752941
vn -0.910101 0.360391 -0.204537
v -0.164596 1.910330 1.010205 0.752941 0.752941 0.752941
vn -0.818977 -0.547132 0.172982
v -0.128371 1.604783 1.193330 0.752941 0.752941 0.752941
vn 0.557332 -0.133108 0.819551
v -0.110102 0.114974 -0.557813 0.752941 0.752941 0.752941
vn -0.946284 -0.033718 0.321575
v -0.282461 0.281407 -0.623261 0.752941 0.752941 0.752941
vn -0.532245 -0.548022 -0.645281
v -0.214053 0.110916 -0.723583 0.752941 0.752941 0.752941
vn 0.968223 -0.244340 0.053321
v -0.147383 0.089941 0.728549 0.752941 0.752941 0.752941
vn -0.937626 -0.151646 -0.312828
v 0.214004 0.354728 0.612408 0.752941 0.752941 0.752941
vn 0.827524 0.555658 -0.080304
v 0.250351 1.380859 -0.283805 0.752941 0.752941 0.752941
vn 0.463191 -0.784355 0.412603
v 0.054897 1.549494 1.361915 0.752941 0.752941 0.752941
vn 0.838886 -0.392570 0.377040
v 0.275502 0.475186 -0.651723 0.752941 0.752941 0.752941
vn 0.804735 0.005350 0.593610
v 0.277276 1.102185 0.835115 0.752941 0.752941 0.752941
vn 0.911047 0.411082 -0.031698
v 0.277342 1.348472 0.669553 0.752941 0.752941 0.752941
vn 0.311348 0.240796 -0.919282
v 0.241841 0.798670 -0.584263 0.752941 0.752941 0.752941
vn 0.487755 0.620961 0.613598
v 0.133009 1.872374 1.258325 0.752941 0.752941 0.752941
vn -0.276038 0.379547 0.883033
v 0.223405 0.263293 0.709592 0.752941 0.752941 0.752941
vn -0.996080 0.027075 0.084217
v -0.171317 1.293860 0.006455 0.752941 0.752941 0.752941
vn 0.013053 -0.931617 -0.363207
v 0.024863 1.013133 0.201364 0.752941 0.752941 0.752941
vn 0.415770 -0.896404 -0.153604
v -0.081388 0.830620 0.614092 0.752941 0.752941 0.752941
vn -0.519609 0.836461 -0.174182
v -0.162736 1.423738 0.460581 0.752941 0.752941 0.752941
vn -0.459258 0.888124 -0.017835
v -0.088936 1.518861 -0.199904 0.752941 0.752941 0.752941
vn -0.688137 -0.043333 0.724285
v -0.300531 0.090287 0.741259 0.752941 0.752941 0.752941
vn -0.106054 -0.199994 -0.974040
v -0.234472 0.351427 0.594433 0.752941 0.752941 0.752941
vn 0.121322 0.430766 0.894272
v -0.067858 1.680800 1.468386 0.752941 0.752941 0.752941
vn -0.437113 -0.592025 0.677081
v 0.160871 0.878170 -0.299634 0.752941 0.752941 0.752941
vn 0.326207 0.945252 -0.009360
v 0.091627 1.520475 -0.171824 0.752941 0.752941 0.752941
vn 0.000000 0.000000 0.000000
v 0.151451 0.113998 -0.452218 0.752941 0.752941 0.752941
vn -0.171477 0.982214 -0.076494
v -0.076673 1.969592 1.067137 0.752941 0.752941 0.752941
vn -0.114990 -0.611691 0.782695
v -0.203475 0.900249 0.799600 0.752941 0.752941 0.752941
vn 0.828987 0.009092 0.559194
v 0.177004 1.730934 1.229403 0.752941 0.752941 0.752941
# 83 vertices, 0 vertices normals


usemtl material_0
vt 0.451300 0.908700
vt 0.447000 0.900300
vt 0.466200 0.913900
f 41/1/41 83/2/83 77/3/77
vt 0.410900 0.901700
vt 0.408100 0.909200
vt 0.397400 0.902700
f 83/4/83 41/5/41 63/6/63
vt 0.426800 0.711100
vt 0.420600 0.717700
vt 0.416900 0.706300
f 24/7/24 68/8/68 11/9/11
vt 0.253200 0.541300
vt 0.250900 0.558400
vt 0.238900 0.547400
f 14/10/14 1/11/1 43/12/43
vt 0.196600 0.327000
vt 0.186900 0.333800
vt 0.181300 0.327000
f 3/13/3 82/14/82 6/15/6
vt 0.452700 0.090600
vt 0.466000 0.089400
vt 0.462600 0.099300
f 62/16/62 33/17/33 79/18/79
vt 0.231200 0.311400
vt 0.240200 0.309600
vt 0.245000 0.313800
f 7/19/7 17/20/17 5/21/5
vt 0.221300 0.311200
vt 0.222800 0.311500
vt 0.219600 0.312600
f 6/22/6 61/23/61 3/24/3
vt 0.388400 0.050800
vt 0.389300 0.052100
vt 0.389600 0.054500
f 64/25/64 23/26/23 22/27/22
vt 0.387000 0.049100
vt 0.386200 0.050700
vt 0.384900 0.051000
f 64/28/64 22/29/22 78/30/78
vt 0.387900 0.048300
vt 0.387700 0.048200
vt 0.387300 0.047500
f 8/31/8 78/32/78 21/33/21
f 27/31/27 8/31/8 12/31/12
vt 0.367100 0.164000
vt 0.341100 0.163600
vt 0.349200 0.144800
f 10/34/10 2/35/2 16/36/16
vt 0.414000 0.747600
vt 0.404100 0.758700
vt 0.400300 0.741600
f 68/37/68 83/38/83 11/39/11
vt 0.308400 0.433700
vt 0.288200 0.396500
vt 0.303500 0.394700
f 15/40/15 65/41/65 66/42/66
vt 0.398300 0.028900
vt 0.390200 0.024900
vt 0.396400 0.022400
f 4/43/4 21/44/21 13/45/13
vt 0.453300 0.423400
vt 0.443700 0.443500
vt 0.440400 0.402800
f 47/46/47 15/47/15 19/48/19
vt 0.458700 0.629000
vt 0.471200 0.604700
vt 0.486000 0.623800
f 24/49/24 47/50/47 81/51/81
vt 0.327800 0.311200
vt 0.336500 0.324600
vt 0.308900 0.330100
f 20/52/20 66/53/66 17/54/17
vt 0.328700 0.825700
vt 0.335500 0.819700
vt 0.332000 0.834700
f 1/55/1 83/56/83 63/57/63
vt 0.301400 0.485600
vt 0.297900 0.500200
vt 0.287200 0.491100
f 15/58/15 1/59/1 14/60/14
vt 0.348400 0.204600
vt 0.330500 0.183200
vt 0.358900 0.183800
f 20/61/20 2/62/2 10/63/10
vt 0.388700 0.078800
vt 0.389800 0.086400
vt 0.383300 0.083300
f 22/64/22 10/65/10 16/66/16
vt 0.365300 0.349000
vt 0.350700 0.347900
vt 0.380100 0.299100
f 18/67/18 66/68/66 20/69/20
vt 0.473000 0.685400
vt 0.489900 0.684300
vt 0.488400 0.700800
f 24/70/24 81/71/81 68/72/68
f 27/31/27 12/31/12 9/31/9
vt 0.389500 0.040400
vt 0.388700 0.036000
vt 0.392900 0.037500
f 67/73/67 21/74/21 4/75/4
vt 0.553500 0.085500
vt 0.548600 0.083000
vt 0.554400 0.078700
f 46/76/46 74/77/74 50/78/50
vt 0.553400 0.103100
vt 0.551900 0.122900
vt 0.546500 0.126200
f 46/79/46 70/80/70 31/81/31
vt 0.619400 0.783400
vt 0.613600 0.783200
vt 0.614800 0.773900
f 30/82/30 56/83/56 55/84/55
vt 0.570100 0.246700
vt 0.566900 0.263900
vt 0.551700 0.212900
f 45/85/45 73/86/73 31/87/31
vt 0.772900 0.327000
vt 0.772800 0.321000
vt 0.784700 0.320200
f 82/88/82 72/89/72 6/90/6
vt 0.748900 0.301200
vt 0.751700 0.299700
vt 0.748800 0.306600
f 35/91/35 72/92/72 36/93/36
vt 0.744800 0.314000
vt 0.745900 0.312200
vt 0.744000 0.318500
f 76/94/76 36/95/36 54/96/54
vt 0.746300 0.309600
vt 0.747000 0.304200
vt 0.746400 0.310400
f 76/97/76 35/98/35 36/99/36
vt 0.581800 0.049400
vt 0.582300 0.048700
vt 0.582600 0.048600
f 49/100/49 44/101/44 40/102/40
vt 0.582900 0.048400
vt 0.582900 0.048500
f 38/103/38 49/104/49 40/103/40
vt 0.582900 0.048300
f 39/105/39 58/105/58 40/105/40
vt 0.653900 0.552700
vt 0.661200 0.565100
vt 0.652900 0.581600
f 48/106/48 43/107/43 30/108/30
vt 0.532700 0.022500
vt 0.540400 0.023600
vt 0.540200 0.031500
f 33/109/33 13/110/13 50/111/50
vt 0.720800 0.340300
vt 0.720300 0.332600
vt 0.729400 0.330200
f 42/112/42 45/113/45 54/114/54
vt 0.626800 0.235900
vt 0.632900 0.224500
vt 0.647800 0.247200
f 70/115/70 52/116/52 45/117/45
vt 0.727300 0.259000
vt 0.704800 0.222400
vt 0.732100 0.232400
f 35/118/35 52/119/52 71/120/71
vt 0.685000 0.269000
vt 0.677000 0.281500
vt 0.664500 0.264500
f 52/121/52 54/122/54 45/123/45
vt 0.588700 0.067100
vt 0.592500 0.074400
vt 0.587200 0.077400
f 51/124/51 53/125/53 46/126/46
vt 0.567800 0.068800
vt 0.567600 0.065000
vt 0.572600 0.063700
f 46/127/46 50/128/50 49/129/49
vt 0.550400 0.731900
vt 0.545800 0.714100
vt 0.561400 0.715000
f 32/130/32 81/131/81 55/132/55
vt 0.525900 0.719600
vt 0.503100 0.716000
vt 0.528000 0.704700
f 32/133/32 68/134/68 81/135/81
f 38/105/38 58/105/58 39/105/39
vt 0.414300 0.081800
vt 0.406900 0.077500
vt 0.409200 0.075600
f 62/136/62 10/137/10 23/138/23
vt 0.296600 0.440700
vt 0.309700 0.455800
vt 0.293500 0.458500
f 65/139/65 15/140/15 14/141/14
vt 0.404200 0.375100
vt 0.393800 0.408000
vt 0.379800 0.355700
f 19/142/19 15/143/15 66/144/66
vt 0.420200 0.057000
vt 0.430100 0.058500
vt 0.427800 0.061900
f 4/145/4 33/146/33 62/147/62
vt 0.377000 0.060000
vt 0.379200 0.056800
vt 0.381900 0.058700
f 16/148/16 78/149/78 22/150/22
vt 0.395900 0.048700
vt 0.392400 0.048000
vt 0.397500 0.047700
f 23/151/23 67/152/67 4/153/4
vt 0.224500 0.311100
vt 0.224400 0.311200
f 61/154/61 69/154/69 7/155/7
vt 0.224600 0.311000
f 7/156/7 29/154/29 61/154/61
f 7/154/7 69/154/69 29/154/29
vt 0.221700 0.327200
vt 0.223300 0.318600
vt 0.224300 0.325600
f 3/157/3 7/158/7 5/159/5
vt 0.229300 0.301300
vt 0.233600 0.299500
vt 0.227700 0.306000
f 26/160/26 17/161/17 7/162/7
vt 0.224400 0.311500
vt 0.224100 0.312200
vt 0.224300 0.311500
f 7/163/7 3/164/3 61/165/61
vt 0.389200 0.048600
vt 0.391100 0.049600
vt 0.389100 0.049000
f 67/166/67 23/167/23 64/168/64
vt 0.387500 0.048500
vt 0.387900 0.048400
f 78/169/78 8/31/8 64/170/64
f 27/31/27 12/31/12 64/31/64
vt 0.431300 0.161600
vt 0.442700 0.132300
vt 0.436800 0.166900
f 10/171/10 62/172/62 18/173/18
vt 0.232200 0.387100
vt 0.226400 0.397200
vt 0.224100 0.387300
f 65/174/65 14/175/14 3/176/3
vt 0.296900 0.367200
vt 0.296100 0.355400
vt 0.309500 0.372900
f 65/177/65 17/178/17 66/179/66
vt 0.309300 0.077900
vt 0.328500 0.053300
vt 0.337800 0.054500
f 53/180/53 13/181/13 16/182/16
vt 0.317900 0.523300
vt 0.328000 0.499200
vt 0.332900 0.523800
f 1/183/1 15/184/15 11/185/11
vt 0.356500 0.774700
vt 0.349700 0.771100
vt 0.353200 0.764600
f 83/186/83 1/187/1 11/188/11
vt 0.446300 0.563000
vt 0.448000 0.526300
vt 0.463000 0.546800
f 11/189/11 15/190/15 47/191/47
f 21/31/21 12/31/12 8/31/8
vt 0.488900 0.146600
vt 0.489100 0.171900
vt 0.478100 0.145800
f 74/192/74 18/193/18 79/194/79
vt 0.462900 0.383400
vt 0.479100 0.413000
vt 0.464200 0.423200
f 19/195/19 73/196/73 47/197/47
vt 0.209000 0.238600
vt 0.218800 0.254700
vt 0.211300 0.264200
f 71/198/71 26/199/26 6/200/6
vt 0.191000 0.280500
vt 0.194500 0.266100
vt 0.201400 0.271600
f 72/201/72 71/202/71 6/203/6
vt 0.300200 0.233900
vt 0.324300 0.244400
vt 0.308100 0.257300
f 2/204/2 20/205/20 26/206/26
vt 0.362400 0.033000
vt 0.363900 0.038200
vt 0.359100 0.041300
f 21/207/21 78/208/78 16/209/16
vt 0.351200 0.043300
vt 0.356500 0.030000
f 21/207/21 16/210/16 13/211/13
vt 0.395400 0.261800
vt 0.386500 0.253100
vt 0.401500 0.219300
f 18/212/18 20/213/20 10/214/10
vt 0.183700 0.357400
vt 0.178700 0.381300
vt 0.175800 0.357800
f 3/215/3 14/216/14 82/217/82
vt 0.228700 0.356200
vt 0.232000 0.350100
vt 0.238100 0.368000
f 3/218/3 5/219/5 65/220/65
vt 0.396700 0.352100
vt 0.390800 0.325200
f 19/221/19 66/144/66 18/222/18
vt 0.392200 0.070700
vt 0.388200 0.065100
vt 0.392300 0.067000
f 10/223/10 22/224/22 23/225/23
vt 0.266900 0.219100
vt 0.246000 0.207000
vt 0.250400 0.190100
f 2/226/2 26/227/26 71/228/71
vt 0.327400 0.128500
vt 0.301900 0.123400
vt 0.309000 0.111300
f 16/229/16 71/230/71 53/231/53
vt 0.285000 0.138400
vt 0.318400 0.146000
vt 0.313200 0.155700
f 71/232/71 16/233/16 2/234/2
f 27/31/27 9/31/9 12/31/12
f 61/154/61 28/154/28 69/154/69
f 61/154/61 29/154/29 28/154/28
vt 0.760000 0.423400
vt 0.752900 0.447200
vt 0.750900 0.426800
f 14/235/14 43/236/43 42/237/42
vt 0.567800 0.607200
vt 0.563800 0.621100
vt 0.556400 0.602000
f 30/238/30 55/239/55 47/240/47
vt 0.566000 0.578300
vt 0.554800 0.587500
vt 0.554300 0.562200
f 30/241/30 47/242/47 48/243/48
vt 0.690100 0.429100
vt 0.707900 0.398000
vt 0.692100 0.441800
f 48/244/48 42/245/42 43/246/43
vt 0.566600 0.405600
vt 0.577000 0.407800
vt 0.566100 0.433300
f 47/247/47 73/248/73 48/249/48
vt 0.540800 0.072200
vt 0.540000 0.081900
vt 0.536300 0.076000
f 50/250/50 74/251/74 33/252/33
vt 0.583900 0.042800
vt 0.582800 0.043000
vt 0.582600 0.036100
f 37/253/37 44/254/44 13/255/13
vt 0.746200 0.311100
f 34/256/34 76/256/76 36/256/36
vt 0.751100 0.316100
vt 0.751400 0.319700
vt 0.748600 0.314800
f 72/257/72 82/258/82 36/259/36
vt 0.584900 0.048900
vt 0.589100 0.051200
vt 0.584100 0.048800
f 37/260/37 51/261/51 38/262/38
vt 0.579300 0.049100
vt 0.581400 0.048900
vt 0.579300 0.049700
f 44/263/44 49/264/49 50/265/50
vt 0.583000 0.049100
f 51/266/51 49/104/49 38/103/38
vt 0.583100 0.048200
f 38/105/38 39/105/39 37/267/37
f 40/105/40 58/105/58 38/105/38
vt 0.558300 0.632800
vt 0.529200 0.625500
vt 0.535400 0.618100
f 55/268/55 81/269/81 47/270/47
vt 0.597300 0.880400
vt 0.580400 0.902000
vt 0.596200 0.877200
f 56/271/56 41/272/41 32/273/32
vt 0.600700 0.771700
vt 0.603500 0.767200
f 32/274/32 55/275/55 56/83/56
vt 0.601200 0.863700
vt 0.588600 0.862000
vt 0.601400 0.826100
f 56/276/56 63/277/63 25/278/25
vt 0.637800 0.869700
vt 0.643400 0.855000
vt 0.649900 0.861700
f 63/279/63 56/280/56 1/281/1
vt 0.719900 0.598800
vt 0.705600 0.596500
vt 0.716800 0.578000
f 1/282/1 30/283/30 43/284/43
vt 0.582900 0.048000
vt 0.582800 0.048100
f 37/285/37 39/105/39 44/286/44
vt 0.582700 0.048200
vt 0.582800 0.048300
f 44/287/44 39/288/39 40/288/40
vt 0.732700 0.352400
vt 0.720700 0.365100
vt 0.728700 0.348400
f 82/289/82 42/290/42 54/291/54
vt 0.496700 0.173100
vt 0.500300 0.144100
vt 0.503300 0.182400
f 18/292/18 74/293/74 31/294/31
vt 0.490500 0.094600
vt 0.480000 0.101500
vt 0.481200 0.090700
f 74/295/74 79/296/79 33/297/33
vt 0.506600 0.323500
vt 0.510900 0.267200
vt 0.517600 0.323700
f 18/298/18 31/299/31 73/300/73
vt 0.638100 0.837700
vt 0.640600 0.819700
vt 0.652700 0.856500
f 56/301/56 30/302/30 1/303/1
vt 0.586200 0.112000
vt 0.606000 0.110400
vt 0.587800 0.122400
f 46/304/46 52/305/52 70/306/70
vt 0.614700 0.375400
vt 0.632600 0.374700
vt 0.627600 0.389000
f 73/307/73 45/308/45 48/309/48
vt 0.576600 0.081000
vt 0.582300 0.067700
vt 0.584100 0.070300
f 46/310/46 49/311/49 51/312/51
vt 0.661800 0.111400
vt 0.647700 0.136900
vt 0.643400 0.128500
f 53/313/53 71/314/71 52/315/52
vt 0.746100 0.311200
vt 0.746100 0.311300
f 76/316/76 34/256/34 36/317/36
vt 0.714300 0.281100
vt 0.703200 0.264100
vt 0.719700 0.278200
f 54/318/54 52/319/52 35/320/35
vt 0.747700 0.278600
vt 0.751900 0.265800
vt 0.755200 0.280000
f 35/321/35 71/322/71 72/323/72
vt 0.495300 0.819500
vt 0.517200 0.820100
vt 0.502600 0.840900
f 83/324/83 32/325/32 77/326/77
vt 0.481800 0.786500
vt 0.481700 0.770600
vt 0.494500 0.786400
f 83/327/83 68/328/68 32/329/32
f 39/105/39 59/105/59 58/105/58
f 59/105/59 39/105/39 57/105/57
f 57/105/57 58/105/58 59/105/59
f 75/256/75 34/256/34 76/256/76
f 75/256/75 60/256/60 34/256/34
f 76/256/76 60/256/60 75/256/75
vt 0.412700 0.069600
vt 0.414900 0.066900
vt 0.421100 0.072500
f 23/330/23 4/331/4 62/332/62
vt 0.223700 0.304300
vt 0.222500 0.304600
vt 0.221300 0.297800
f 7/333/7 6/334/6 26/335/26
vt 0.224200 0.310400
f 61/336/61 6/334/6 7/333/7
vt 0.448700 0.134900
vt 0.454600 0.137200
vt 0.450500 0.163800
f 62/337/62 79/338/79 18/339/18
vt 0.428500 0.629600
vt 0.437800 0.606300
vt 0.452300 0.605600
f 24/340/24 11/341/11 47/342/47
vt 0.280600 0.799800
vt 0.285500 0.770700
vt 0.292000 0.792700
f 41/343/41 25/344/25 63/345/63
vt 0.387900 0.048100
f 67/346/67 12/31/12 21/31/21
f 8/31/8 27/31/27 64/31/64
vt 0.273800 0.331400
vt 0.281800 0.344000
vt 0.275400 0.349200
f 5/347/5 17/348/17 65/349/65
vt 0.285300 0.290900
vt 0.292300 0.295500
vt 0.279900 0.308600
f 26/350/26 20/351/20 17/352/17
vt 0.388200 0.048400
vt 0.388500 0.048500
vt 0.388500 0.048600
f 12/353/12 67/354/67 64/355/64
f 27/31/27 80/31/80 9/31/9
f 27/31/27 9/31/9 80/31/80
f 69/154/69 28/154/28 29/154/29
vt 0.539700 0.106800
vt 0.547500 0.102400
vt 0.540500 0.126500
f 74/356/74 46/357/46 31/358/31
vt 0.578200 0.245000
vt 0.562000 0.212600
vt 0.578600 0.207700
f 45/359/45 31/360/31 70/361/70
vt 0.754500 0.405300
vt 0.756900 0.391300
vt 0.764500 0.392200
f 42/362/42 82/363/82 14/364/14
vt 0.579200 0.046300
vt 0.575600 0.044700
vt 0.576400 0.043800
f 44/365/44 50/366/50 13/367/13
vt 0.738300 0.303400
vt 0.739700 0.306600
vt 0.731300 0.302700
f 35/368/35 76/369/76 54/370/54
vt 0.737900 0.338700
vt 0.745000 0.320000
f 82/371/82 54/96/54 36/372/36
vt 0.592200 0.044900
vt 0.593000 0.046400
vt 0.587400 0.047500
f 13/373/13 51/374/51 37/375/37
vt 0.578400 0.896700
vt 0.590000 0.879300
f 41/272/41 77/376/77 32/377/32
vt 0.680400 0.791200
vt 0.692500 0.764900
vt 0.691000 0.799300
f 56/378/56 25/379/25 41/380/41
vt 0.650700 0.379500
vt 0.674200 0.382300
vt 0.661900 0.399100
f 45/381/45 42/382/42 48/383/48
vt 0.539500 0.018900
vt 0.527300 0.008500
f 13/384/13 33/109/33 4/385/4
vt 0.479700 0.329800
vt 0.495900 0.323500
vt 0.502200 0.343500
f 19/386/19 18/387/18 73/388/73
vt 0.603400 0.102600
vt 0.609200 0.096100
vt 0.613900 0.106800
f 46/389/46 53/390/53 52/391/52
vt 0.597900 0.042100
vt 0.602100 0.045900
f 13/392/13 53/393/53 51/374/51
f 39/105/39 58/105/58 57/105/57
f 60/256/60 76/256/76 34/256/34
# 162 faces, 393 coords texture

# End of File
