####
#
# OBJ File Generated by Meshlab
#
####
# Object horse6.obj
#
# Vertices: 43
# Faces: 74
#
####
mtllib ./horse6.obj.mtl

vn 0.512591 0.858367 -0.021388
v 0.102064 3.148858 1.269074 0.752941 0.752941 0.752941
vn 0.360283 0.809302 -0.463924
v 0.019834 2.785431 0.598701 0.752941 0.752941 0.752941
vn 0.000000 0.000000 0.000000
v -0.016629 1.639299 -1.895427 0.752941 0.752941 0.752941
vn -0.006655 0.454415 -0.890765
v 0.067214 2.176555 -1.577997 0.752941 0.752941 0.752941
vn -0.946878 0.320432 -0.027306
v -0.019567 2.992025 1.039589 0.752941 0.752941 0.752941
vn 0.230545 0.945593 0.229571
v 0.001113 3.009554 1.359673 0.752941 0.752941 0.752941
vn 0.465144 -0.871647 -0.154508
v 0.308794 1.391989 0.268637 0.752941 0.752941 0.752941
vn 0.554442 -0.657821 0.509770
v 0.214369 0.995188 0.552759 0.752941 0.752941 0.752941
vn 0.239732 -0.205421 -0.948858
v 0.319013 1.103266 -1.545212 0.752941 0.752941 0.752941
vn 0.990572 -0.070886 0.117232
v 0.444240 1.673823 -0.894095 0.752941 0.752941 0.752941
vn 0.619401 -0.741656 0.257465
v 0.269753 0.811972 -1.603530 0.752941 0.752941 0.752941
vn -0.227260 -0.971260 -0.070761
v 0.013973 1.489157 -0.876277 0.752941 0.752941 0.752941
vn 0.937240 0.266787 0.224513
v 0.361652 2.183081 0.575164 0.752941 0.752941 0.752941
vn 0.212712 0.971314 -0.106318
v 0.033887 3.131610 0.824015 0.752941 0.752941 0.752941
vn 0.127544 0.760468 -0.636727
v -0.024266 2.660295 0.249456 0.752941 0.752941 0.752941
vn 0.998024 -0.062827 -0.000851
v 0.017162 2.865867 0.829399 0.752941 0.752941 0.752941
vn 0.671634 0.740864 -0.005260
v 0.234745 2.327226 -0.450614 0.752941 0.752941 0.752941
vn -0.324277 0.895060 -0.306124
v -0.029020 2.472389 0.226010 0.752941 0.752941 0.752941
vn -0.790174 0.611688 -0.038235
v -0.227585 2.329797 -0.433072 0.752941 0.752941 0.752941
vn 0.906983 0.400167 -0.131332
v 0.425518 2.027942 0.191174 0.752941 0.752941 0.752941
vn 0.918835 -0.390786 0.055038
v 0.345199 1.675770 -0.596238 0.752941 0.752941 0.752941
vn 0.896413 -0.096777 0.432525
v 0.131444 2.627194 0.990735 0.752941 0.752941 0.752941
vn 0.710747 0.475380 -0.518510
v 0.417269 2.095552 -1.414777 0.752941 0.752941 0.752941
vn 0.977924 -0.094378 0.186434
v 0.458324 1.765690 0.496304 0.752941 0.752941 0.752941
vn 0.000000 0.000000 0.000000
v -0.009123 1.214628 -1.792610 0.752941 0.752941 0.752941
vn -0.954591 0.297824 0.007584
v -0.418544 2.064813 0.376470 0.752941 0.752941 0.752941
vn 0.343969 -0.193522 0.918822
v 0.199167 2.009390 0.836247 0.752941 0.752941 0.752941
vn -0.752067 -0.024981 0.658614
v -0.098277 2.761824 1.730969 0.752941 0.752941 0.752941
vn -0.728288 -0.677614 0.102157
v -0.318967 0.843409 -1.637545 0.752941 0.752941 0.752941
vn -0.245741 -0.696044 0.674636
v -0.153267 1.506413 0.661567 0.752941 0.752941 0.752941
vn -0.727962 -0.357892 0.584795
v -0.402305 1.555330 0.675483 0.752941 0.752941 0.752941
vn 0.290502 -0.955549 0.050339
v -0.248361 0.949981 -1.448482 0.752941 0.752941 0.752941
vn -0.878965 -0.341236 0.333135
v -0.414438 1.467879 -1.008970 0.752941 0.752941 0.752941
vn -0.653014 -0.012673 0.757240
v -0.244912 2.099578 0.797071 0.752941 0.752941 0.752941
vn 0.090039 -0.231510 -0.968657
v -0.058149 1.747658 -1.529415 0.752941 0.752941 0.752941
vn -0.826984 0.503851 -0.249463
v -0.176949 2.510653 0.475058 0.752941 0.752941 0.752941
vn -0.958114 0.264917 -0.108792
v -0.406846 1.985415 -0.294294 0.752941 0.752941 0.752941
vn -0.925143 -0.376385 0.049439
v -0.320902 1.671932 -0.645577 0.752941 0.752941 0.752941
vn 0.003651 -0.963559 -0.267469
v -0.001799 1.283253 -0.509885 0.752941 0.752941 0.752941
vn -0.711508 -0.698853 0.073220
v -0.378860 1.409896 0.314897 0.752941 0.752941 0.752941
vn -0.280843 0.943925 -0.173586
v -0.340264 2.330282 -1.025477 0.752941 0.752941 0.752941
vn -0.903113 0.311968 0.295064
v -0.146769 2.978357 1.094219 0.752941 0.752941 0.752941
vn -0.820394 0.170592 -0.545759
v -0.430743 1.825596 -1.492854 0.752941 0.752941 0.752941
# 43 vertices, 0 vertices normals


usemtl material_0
vt 0.011800 0.824300
vt 0.058700 0.826800
vt 0.049400 0.796800
f 24/1/24 13/2/13 27/3/27
vt 0.930800 0.535600
vt 0.924900 0.555400
vt 0.991100 0.522700
f 25/4/25 3/5/3 4/6/4
vt 0.251700 0.567200
vt 0.246500 0.554700
vt 0.243800 0.561800
f 1/7/1 28/8/28 22/9/22
vt 0.339400 0.696100
vt 0.342500 0.690100
vt 0.284700 0.821200
f 5/10/5 14/11/14 15/12/15
vt 0.355800 0.597800
f 14/11/14 5/10/5 6/13/6
vt 0.773700 0.427400
vt 0.773900 0.434500
vt 0.794300 0.391900
f 11/14/11 9/15/9 10/16/10
vt 0.830700 0.321100
vt 0.866600 0.291200
vt 0.875800 0.269900
f 11/17/11 10/18/10 21/19/21
vt 0.860600 0.857800
vt 0.866600 0.841500
vt 0.834100 0.839500
f 7/20/7 24/21/24 8/22/8
vt 0.815500 0.420500
vt 0.815000 0.444400
vt 0.793300 0.442100
f 12/23/12 9/24/9 11/25/11
vt 0.823900 0.322900
vt 0.864000 0.279500
vt 0.861700 0.286700
f 11/26/11 21/27/21 12/28/12
vt 0.006300 0.913100
vt 0.044200 0.905700
vt 0.036900 0.879300
f 24/29/24 20/30/20 13/31/13
vt 0.065400 0.874400
vt 0.094200 0.838300
vt 0.056500 0.851400
f 20/32/20 2/33/2 13/34/13
vt 0.015400 0.466100
vt 0.038700 0.457600
vt 0.031800 0.449800
f 35/35/35 4/36/4 23/37/23
vt 0.930800 0.771500
vt 0.915600 0.772200
vt 0.928200 0.766600
f 30/38/30 8/39/8 27/40/27
vt 0.113600 0.820600
vt 0.128700 0.790300
vt 0.084300 0.815700
f 2/41/2 22/42/22 13/43/13
vt 0.102300 0.899700
vt 0.106700 0.913800
vt 0.147500 0.842900
f 20/44/20 18/45/18 2/46/2
vt 0.255200 0.736400
vt 0.288300 0.590600
f 16/47/16 14/10/14 6/48/6
vt 0.190700 0.936700
vt 0.235900 0.884300
vt 0.165600 0.881700
f 15/49/15 14/50/14 16/51/16
vt 0.073200 0.994100
vt 0.091800 0.001900
vt 0.088900 0.971500
f 20/52/20 17/53/17 18/54/18
vt 0.117800 0.087500
vt 0.115700 0.081500
vt 0.117500 0.038100
f 17/55/17 19/56/19 18/57/18
vt 0.999000 0.100500
vt 0.012800 0.148300
vt 0.029600 0.102400
f 20/58/20 21/59/21 17/60/17
vt 0.854600 0.160400
vt 0.886600 0.197600
vt 0.861800 0.155400
f 39/61/39 12/62/12 21/63/21
vt 0.899500 0.011700
vt 0.910000 0.984700
vt 0.879300 0.987600
f 21/64/21 24/65/24 7/66/7
vt 0.951800 0.984100
vt 0.940900 0.012300
vt 0.987100 0.015800
f 24/67/24 21/68/21 20/69/20
vt 0.854700 0.083100
vt 0.845600 0.031400
vt 0.839800 0.041600
f 21/70/21 7/71/7 39/72/39
vt 0.061900 0.757100
vt 0.067800 0.775200
vt 0.127000 0.733900
f 27/73/27 13/74/13 22/75/22
vt 0.092900 0.400700
vt 0.110400 0.366700
vt 0.111700 0.349200
f 4/76/4 41/77/41 23/78/23
vt 0.143000 0.804000
vt 0.180500 0.750200
f 2/79/2 1/80/1 22/42/22
vt 0.121200 0.278800
vt 0.123900 0.287600
vt 0.125000 0.256300
f 23/81/23 41/82/41 17/83/17
vt 0.952400 0.779500
vt 0.924900 0.788200
vt 0.962800 0.790000
f 27/84/27 8/85/8 24/86/24
vt 0.992100 0.339700
vt 0.017600 0.263200
vt 0.988300 0.315000
f 23/87/23 17/88/17 10/89/10
vt 0.975000 0.223500
vt 0.974200 0.264600
vt 0.983100 0.226700
f 21/90/21 10/91/10 17/92/17
vt 0.917300 0.463200
vt 0.928100 0.467500
vt 0.937400 0.468200
f 23/93/23 9/94/9 35/95/35
vt 0.885200 0.419900
vt 0.880100 0.414900
vt 0.900500 0.400300
f 35/96/35 9/97/9 12/98/12
vt 0.882200 0.825300
vt 0.868900 0.835900
vt 0.874700 0.823600
f 30/99/30 7/100/7 8/101/8
vt 0.855500 0.424200
vt 0.859700 0.435900
vt 0.870300 0.424100
f 10/102/10 9/103/9 23/104/23
f 26/2/26 31/1/31 34/3/34
vt 0.020400 0.486500
vt 0.030300 0.481400
vt 0.023400 0.486500
f 4/105/4 3/106/3 25/107/25
vt 0.256000 0.786700
vt 0.301600 0.688100
vt 0.312600 0.664700
f 2/108/2 42/109/42 1/110/1
vt 0.321600 0.595400
vt 0.316400 0.586700
vt 0.305100 0.563900
f 1/111/1 42/112/42 28/113/28
vt 0.748200 0.838300
vt 0.769800 0.849900
vt 0.747700 0.843300
f 31/114/31 40/115/40 30/116/30
vt 0.166200 0.680600
vt 0.184100 0.690100
vt 0.109000 0.727300
f 22/117/22 42/118/42 27/119/27
vt 0.814900 0.437000
vt 0.819100 0.455000
vt 0.793000 0.454900
f 33/120/33 43/121/43 29/122/29
vt 0.774300 0.422000
vt 0.799600 0.373400
f 29/123/29 32/124/32 33/16/33
vt 0.822300 0.463100
vt 0.819200 0.458700
vt 0.797100 0.476700
f 43/125/43 32/126/32 29/127/29
f 33/18/33 32/17/32 38/19/38
f 38/27/38 32/26/32 12/28/12
vt 0.067100 0.402500
vt 0.053800 0.431600
vt 0.046100 0.417000
f 41/128/41 4/129/4 43/130/43
f 36/33/36 26/34/26 34/43/34
f 42/42/42 36/41/36 34/43/34
f 4/36/4 35/35/35 43/37/43
f 18/45/18 26/44/26 36/46/36
vt 0.937400 0.858000
vt 0.976700 0.851300
vt 0.947600 0.892600
f 31/131/31 26/132/26 40/133/40
vt 0.948900 0.767800
vt 0.966200 0.768500
vt 0.960600 0.759300
f 30/134/30 27/135/27 34/136/34
f 31/39/31 30/38/30 34/40/34
vt 0.176700 0.879700
vt 0.127500 0.941400
vt 0.165100 0.873800
f 2/137/2 18/138/18 36/139/36
vt 0.020500 0.389800
vt 0.021800 0.310900
vt 0.041000 0.275500
f 41/140/41 43/141/43 19/142/19
f 19/53/19 37/52/37 18/54/18
vt 0.074500 0.963800
f 26/143/26 18/54/18 37/52/37
vt 0.996500 0.985600
vt 0.011600 0.957000
vt 0.033000 0.984900
f 37/144/37 40/145/40 26/146/26
vt 0.003300 0.190800
f 19/92/19 38/90/38 37/147/37
f 12/62/12 39/61/39 38/63/38
vt 0.833400 0.065800
vt 0.837700 0.017600
vt 0.833100 0.061700
f 39/148/39 7/149/7 40/150/40
f 38/68/38 40/67/40 37/69/37
vt 0.848200 0.095800
f 38/70/38 39/151/39 40/72/40
vt 0.171100 0.609400
vt 0.176100 0.607400
vt 0.168700 0.602300
f 42/152/42 22/153/22 28/154/28
vt 0.911400 0.442500
vt 0.890200 0.444100
vt 0.902800 0.453100
f 35/155/35 32/156/32 43/157/43
vt 0.864000 0.357900
vt 0.865100 0.364200
vt 0.889800 0.352200
f 12/158/12 32/159/32 35/160/35
f 34/74/34 27/73/27 42/75/42
vt 0.249800 0.755200
vt 0.244800 0.746400
f 2/161/2 36/139/36 42/162/42
vt 0.125800 0.266600
f 41/82/41 19/83/19 17/163/17
vt 0.963700 0.257600
vt 0.952600 0.248600
f 38/90/38 43/164/43 33/165/33
f 43/91/43 38/90/38 19/92/19
vt 0.873200 0.881800
vt 0.867300 0.877100
vt 0.867500 0.883500
f 7/166/7 30/167/30 40/168/40
# 74 faces, 168 coords texture

# End of File
